<?xml version="1.0" encoding="utf-8"?>
<!-- Generator: Adobe Illustrator 27.5.0, SVG Export Plug-In . SVG Version: 6.00 Build 0)  -->
<svg version="1.1" id="Layer_1" xmlns="http://www.w3.org/2000/svg" xmlns:xlink="http://www.w3.org/1999/xlink" x="0px" y="0px"
	 viewBox="0 0 450 450" style="enable-background:new 0 0 450 450;" xml:space="preserve">
<g>
	<polygon style="opacity:0.3;" points="76.431,254.091 162.413,204.447 170.958,204.447 373.569,321.147 373.569,326.079 
		287.582,375.708 279.033,375.708 236.839,351.464 164.4,393.277 83.909,346.81 156.351,304.989 76.431,259.023 	"/>
	<g>
		<polygon style="fill:#A39685;" points="81.92,262.072 87.412,265.242 107.248,194.641 90.651,150.249 81.92,149.297 		"/>
		<polygon style="fill:#736656;" points="87.412,265.242 181.915,210.666 181.915,97.904 87.412,152.464 		"/>
	</g>
	<g>
		<g>
			<polygon style="fill:#736656;" points="167.02,246.415 216.772,217.683 216.772,164.319 167.02,193.041 159.523,210.698 			"/>
			<polygon style="fill:#A39685;" points="92.081,149.773 167.02,193.041 167.02,246.415 163.858,248.225 95.234,208.62 
				92.081,203.142 			"/>
		</g>
		<g>
			<polygon style="opacity:0.3;" points="95.055,207.521 163.551,247.065 163.551,222.329 95.055,182.786 			"/>
			<polygon style="fill:#A39685;" points="94.047,206.196 162.54,245.745 162.54,221.01 94.047,181.471 			"/>
			<g>
				<polygon style="fill:#403531;" points="133.46,225.423 134.336,224.92 134.336,224.471 132.796,224.604 				"/>
				<polygon style="fill:#544540;" points="133.46,224.982 134.336,224.471 133.026,222.195 122.781,217.276 				"/>
				<polygon style="fill:#836E69;" points="132.143,222.69 133.026,222.195 123.637,216.795 122.781,217.276 				"/>
				<polygon style="fill:#685750;" points="121.466,218.041 122.781,217.276 132.143,222.69 133.46,224.982 133.46,225.423 
					132.143,226.179 122.781,220.759 121.466,218.497 				"/>
			</g>
			<polygon style="fill:#736656;" points="162.54,245.745 163.858,244.987 163.858,220.283 162.54,221.01 			"/>
			<polygon style="fill:#423A32;" points="162.54,221.01 163.858,220.283 95.357,180.791 94.047,181.471 			"/>
		</g>
		<g>
			<polygon style="fill:#A39685;" points="94.047,180.387 162.54,219.925 162.54,195.195 94.047,155.656 			"/>
			<g>
				<polygon style="fill:#403531;" points="133.46,199.133 134.336,198.63 134.336,198.181 132.796,198.318 				"/>
				<polygon style="fill:#544540;" points="133.46,198.693 134.336,198.181 133.026,195.904 122.781,190.985 				"/>
				<polygon style="fill:#836E69;" points="132.143,196.407 133.026,195.904 123.637,190.509 122.781,190.985 				"/>
				<polygon style="fill:#685750;" points="121.466,191.751 122.781,190.985 132.143,196.407 133.46,198.693 133.46,199.133 
					132.143,199.879 122.781,194.466 121.466,192.212 				"/>
			</g>
			<polygon style="fill:#736656;" points="162.54,219.925 163.858,219.163 163.858,194.474 162.54,195.195 			"/>
			<polygon style="fill:#A39685;" points="162.54,195.195 163.858,194.474 95.357,154.986 94.047,155.656 			"/>
		</g>
	</g>
	<g>
		<g>
			<polygon style="fill:#F0C6B4;" points="211.115,284.822 210.671,291.013 209.341,295.988 214.429,299.967 219.739,297.313 
				226.589,290.213 235.023,287.693 233.554,276.307 226.859,276.844 			"/>
			<polygon style="fill:#377691;" points="204.513,265.804 210.063,285.819 222.337,285.819 227.805,276.363 222.94,255.855 			"/>
			<polygon style="fill:#F0C6B4;" points="249.589,290.463 256.832,291.122 265.369,290.213 269.263,293.554 267.83,302.177 
				249.589,309.143 243.728,313.343 235.99,314.121 232.45,309.584 233.002,299.967 			"/>
			<polygon style="fill:#428AA8;" points="252.796,239.601 251.243,274.04 251.907,290.463 244.614,299.967 231.569,299.967 
				229.135,260.608 			"/>
		</g>
		<g>
			<g>
				<g>
					<polygon style="fill:#0A0808;" points="172.589,295.61 177.614,298.505 171.117,261.027 167.209,245.585 164.795,243.058 
						160.33,243.152 					"/>
					<polygon style="fill:#211A1A;" points="83.909,346.81 96.441,278.674 98.733,273.125 105.678,274.548 102.695,281.584 
						102.44,281.481 88.936,349.705 					"/>
					<polygon style="fill:#362C29;" points="98.733,273.125 103.76,276.029 110.766,271.422 102.695,268.829 					"/>
					<polygon style="fill:#362C29;" points="156.873,237.531 161.235,242.052 165.855,240.168 160.843,237.278 					"/>
					<polygon style="fill:#574943;" points="102.695,268.829 107.719,271.738 136.991,257.121 161.915,240.44 156.873,237.531 					
						"/>
					<polygon style="fill:#0A0808;" points="161.282,244.256 108.347,274.812 105.815,277.575 104.275,281.319 92.015,347.936 
						88.936,349.705 101.483,281.584 103.76,276.029 107.719,271.738 161.915,240.44 165.855,240.168 168.151,243.1 
						180.693,296.733 177.614,298.505 165.352,246.066 163.814,244.081 					"/>
				</g>
				<g>
					<polygon style="fill:#211A1A;" points="177.04,298.647 190.384,301.569 187.494,314.3 182.631,314.3 					"/>
					<polygon style="fill:#362C29;" points="116.716,268.947 182.631,299.211 182.631,314.3 116.716,276.245 					"/>
					<polygon style="fill:#0A0808;" points="187.494,296.935 232.351,281.103 232.351,288.402 187.494,314.3 					"/>
					<polygon style="fill:#B5AFA7;" points="161.579,240.251 166.441,240.251 232.351,278.311 232.351,281.103 187.494,307.001 
						182.631,307.001 116.716,268.947 116.716,266.142 					"/>
				</g>
				<g>
					<polygon style="fill:#418080;" points="177.04,294.3 190.384,297.205 187.494,307.001 182.631,307.001 					"/>
					<polygon style="fill:#389998;" points="116.716,264.592 182.631,294.842 182.631,307.001 116.716,268.947 					"/>
					<polygon style="fill:#3E6669;" points="187.494,292.565 232.351,276.746 232.351,281.103 187.494,307.001 					"/>
					<polygon style="fill:#8CCCCB;" points="161.579,235.904 166.441,235.904 232.351,273.959 232.351,276.746 187.494,302.646 
						182.631,302.646 116.716,264.592 116.716,261.8 					"/>
				</g>
				<g>
					<polygon style="fill:#0A0808;" points="248.056,339.182 253.078,342.09 246.571,304.587 242.67,289.16 240.261,286.628 
						235.784,286.719 					"/>
					<polygon style="fill:#211A1A;" points="159.363,390.372 171.915,322.249 174.196,316.704 181.147,318.11 178.156,325.163 
						177.908,325.051 164.4,393.277 					"/>
					<polygon style="fill:#362C29;" points="174.196,316.704 179.223,319.599 186.226,314.999 178.156,312.391 					"/>
					<polygon style="fill:#362C29;" points="232.351,281.103 236.716,285.62 241.329,283.743 236.302,280.848 					"/>
					<polygon style="fill:#574943;" points="178.156,312.391 183.178,315.301 212.45,300.693 237.376,284.013 232.351,281.103 					
						"/>
					<polygon style="fill:#0A0808;" points="236.741,287.82 183.811,318.385 181.269,321.147 179.741,324.887 167.474,391.503 
						164.4,393.277 176.944,325.163 179.223,319.599 183.178,315.301 237.376,284.013 241.329,283.743 243.61,286.67 
						256.152,340.313 253.078,342.09 240.823,289.626 239.282,287.656 					"/>
				</g>
			</g>
		</g>
		<g>
			<polygon style="fill:#377691;" points="202.712,241.262 181.593,247.56 179.827,225.858 188.45,225.858 			"/>
			<polygon style="fill:#428AA8;" points="229.135,260.608 181.91,285.819 161.773,284.71 141.79,274.04 134.341,258.367 
				182.589,244.025 216.532,235.178 246.547,233.189 252.796,239.601 242.899,253.146 			"/>
		</g>
	</g>
	<g>
		<polygon style="fill:#A39685;" points="268.056,369.244 273.549,372.416 293.382,301.805 276.775,257.423 268.056,256.471 		"/>
		<polygon style="fill:#736656;" points="273.549,372.416 368.041,317.855 368.041,205.092 273.549,259.646 		"/>
	</g>
	<g>
		<polygon style="fill:#DBB276;" points="162.413,87.982 170.958,87.982 373.569,204.673 373.569,209.618 287.582,259.258 
			279.033,259.258 76.431,142.558 76.431,137.621 		"/>
		<rect x="279.033" y="259.258" style="fill:#A87C49;" width="8.55" height="3.56"/>
		<polygon style="fill:#B88F5A;" points="76.431,146.113 279.033,262.818 279.033,259.258 76.431,142.558 		"/>
		<polygon style="fill:#A16739;" points="287.582,262.818 373.569,213.174 373.569,209.618 287.582,259.258 		"/>
	</g>
	<g>
		<g>
			<polygon style="fill:#D8D1C7;" points="220.062,116.394 215.065,119.295 206.598,114.4 211.6,111.51 			"/>
			<polygon style="fill:#A39C95;" points="224.221,129.888 215.065,135.18 215.065,119.295 220.062,116.394 			"/>
			<polygon style="fill:#E0DEDC;" points="215.065,119.295 206.598,114.4 206.598,130.291 215.065,135.18 			"/>
		</g>
		<polygon style="fill:#F4EFE9;" points="217.428,129.709 215.349,130.909 202.548,123.519 204.63,122.317 		"/>
		<polygon style="fill:#403531;" points="217.428,136.542 215.349,137.744 213.914,133.728 215.349,130.909 217.428,129.709 		"/>
		<polygon style="fill:#685750;" points="215.349,130.909 202.548,123.519 202.548,130.352 215.349,137.744 		"/>
		<polygon style="fill:#F4EFE9;" points="217.428,99.138 215.349,100.342 202.548,92.947 204.63,91.75 		"/>
		<polygon style="fill:#D1D1D1;" points="217.428,129.709 215.349,130.909 215.349,100.342 217.428,99.138 		"/>
		<polygon style="fill:#E0DEDC;" points="215.349,100.342 202.548,92.947 202.548,123.519 215.349,130.909 		"/>
		<polygon style="fill:#A39C95;" points="203.274,94.201 203.274,123.1 214.623,129.653 214.623,100.757 		"/>
	</g>
	<g>
		<polygon style="opacity:0.3;" points="317.107,184.667 304.206,192.109 220.303,143.671 233.203,136.22 		"/>
		<g>
			<g>
				<polygon style="fill:#403531;" points="280.826,181.358 279.579,178.232 299.533,168.515 299.533,170.536 				"/>
				<polygon style="fill:#685750;" points="280.826,181.358 236.802,155.958 236.802,153.931 261.258,162.442 280.826,179.334 				
					"/>
				<polygon style="fill:#836E69;" points="280.826,179.334 236.802,153.931 255.524,143.1 299.533,168.515 				"/>
			</g>
			<g>
				<polygon style="fill:#403531;" points="287.173,164.591 284.937,165.887 253.932,133.529 256.157,132.229 280.882,146.51 				
					"/>
				<polygon style="fill:#544540;" points="284.937,165.887 260.212,151.615 253.932,133.529 278.647,147.8 				"/>
			</g>
		</g>
		<polygon style="opacity:0.3;" points="283.385,177.85 283.375,179.925 299.533,170.536 299.533,168.515 255.524,143.1 
			239.381,152.44 		"/>
		<g>
			<polygon style="fill:#F4EFE9;" points="307.879,159.197 304.206,161.314 220.303,112.869 223.986,110.752 			"/>
			<polygon style="fill:#403531;" points="307.879,171.267 304.206,173.394 301.675,166.294 304.206,161.314 307.879,159.197 			"/>
			<polygon style="fill:#685750;" points="304.206,161.314 220.303,112.869 220.303,124.947 304.206,173.394 			"/>
			<polygon style="fill:#F4EFE9;" points="307.879,105.161 304.206,107.285 220.303,58.84 223.986,56.723 			"/>
			<polygon style="fill:#D1D1D1;" points="307.879,159.197 304.206,161.314 304.206,107.285 307.879,105.161 			"/>
			<polygon style="fill:#E0DEDC;" points="304.206,107.285 220.303,58.84 220.303,112.869 304.206,161.314 			"/>
			<polygon style="fill:#A39C95;" points="302.923,158.35 302.923,159.098 221.586,112.133 221.586,61.056 222.241,61.438 
				222.241,111.75 			"/>
			<g>
				<polygon style="fill:#275C78;" points="302.923,108.016 302.923,158.35 222.241,111.75 222.241,61.438 				"/>
			</g>
			<g>
				<g>
					<polygon style="fill:#8CCCCB;" points="261.601,87.145 260.728,87.648 225.7,67.422 226.571,66.922 					"/>
					<polygon style="fill:#3E6669;" points="261.601,90.256 260.728,90.762 260.728,87.648 261.601,87.145 					"/>
					<polygon style="fill:#D1D1D1;" points="261.601,117.359 260.728,117.862 260.728,90.762 261.601,90.256 					"/>
					<polygon style="fill:#389998;" points="260.728,87.648 225.7,67.422 225.7,70.531 260.728,90.762 					"/>
					<polygon style="fill:#EEF3F5;" points="225.7,97.641 260.728,117.862 260.728,90.762 225.7,70.531 					"/>
					<polygon style="fill:#211A1A;" points="227.538,73.642 227.538,96.863 258.89,114.979 258.89,91.753 					"/>
					<g>
						<polygon style="fill:#EEF3F5;" points="234.81,80.919 229.103,77.618 229.103,76.801 234.81,80.094 						"/>
						<polygon style="fill:#8CCCCB;" points="232.943,81.809 229.103,79.589 229.103,78.769 232.943,80.985 						"/>
						<polygon style="fill:#B5AFA7;" points="231.024,82.67 229.103,81.561 229.103,80.739 231.024,81.851 						"/>
						<polygon style="fill:#8CCCCB;" points="241.788,88.884 231.532,82.965 231.532,82.143 241.788,88.061 						"/>
						<polygon style="fill:#EEF3F5;" points="237.248,90.3 229.92,86.071 229.92,85.246 237.248,89.481 						"/>
						<polygon style="fill:#EEF3F5;" points="235.408,91.205 232.229,89.373 232.229,88.551 235.408,90.388 						"/>
						<polygon style="fill:#EEF3F5;" points="236.805,96.046 231.024,92.71 231.024,91.89 236.805,95.227 						"/>
						<polygon style="fill:#EEF3F5;" points="238.804,99.177 231.024,94.682 231.024,93.86 238.804,98.352 						"/>
						<polygon style="fill:#8CCCCB;" points="232.682,97.614 231.024,96.652 231.024,95.832 232.682,96.794 						"/>
						<polygon style="fill:#EEF3F5;" points="242.737,103.416 233.819,98.266 233.819,97.447 242.737,102.592 						"/>
						<polygon style="fill:#8CCCCB;" points="243.142,101.679 239.366,99.5 239.366,98.678 243.142,100.855 						"/>
						<polygon style="fill:#B5AFA7;" points="245.74,103.178 244.125,102.248 244.125,101.426 245.74,102.359 						"/>
						<polygon style="fill:#B5AFA7;" points="245.276,104.883 243.662,103.949 243.662,103.127 245.276,104.064 						"/>
						<polygon style="fill:#B5AFA7;" points="248.365,104.694 246.751,103.762 246.751,102.938 248.365,103.872 						"/>
						<polygon style="fill:#8CCCCB;" points="257.324,109.044 249.241,104.378 249.241,105.2 257.324,109.866 						"/>
						<polygon style="fill:#FF9F3D;" points="252.379,108.161 246.189,104.591 246.189,105.411 252.379,108.983 						"/>
						<polygon style="fill:#B5AFA7;" points="240.269,98.053 237.415,96.404 237.415,95.582 240.269,97.229 						"/>
						<polygon style="fill:#8CCCCB;" points="246.015,101.368 241.307,98.649 241.307,97.83 246.015,100.543 						"/>
						<polygon style="fill:#FF9F3D;" points="257.324,103.863 236.392,91.777 236.392,90.958 257.324,103.038 						"/>
						<polygon style="fill:#B5AFA7;" points="231.299,88.833 229.92,88.038 229.92,87.219 231.299,88.014 						"/>
						<polygon style="fill:#B5AFA7;" points="229.508,83.789 229.147,83.581 229.147,82.761 229.508,82.967 						"/>
						<polygon style="fill:#B5AFA7;" points="230.475,90.423 230.114,90.22 230.114,89.395 230.475,89.601 						"/>
						<polygon style="fill:#B5AFA7;" points="238.804,91.203 237.58,90.494 237.58,89.67 238.804,90.379 						"/>
						<polygon style="fill:#B5AFA7;" points="233.904,82.364 233.451,82.098 233.451,81.279 233.904,81.542 						"/>
						<polygon style="fill:#B5AFA7;" points="235.408,83.232 234.476,82.692 234.476,81.873 235.408,82.41 						"/>
						<polygon style="fill:#B5AFA7;" points="236.805,82.067 235.048,81.051 235.048,80.232 236.805,81.245 						"/>
					</g>
				</g>
				<g>
					<polygon style="fill:#8CCCCB;" points="298.807,111.868 297.933,112.373 266.871,94.439 267.744,93.934 					"/>
					<polygon style="fill:#3E6669;" points="298.807,114.979 297.933,115.482 297.933,112.373 298.807,111.868 					"/>
					<polygon style="fill:#D1D1D1;" points="298.807,151.037 297.933,151.542 297.933,115.482 298.807,114.979 					"/>
					<polygon style="fill:#389998;" points="297.933,112.373 266.871,94.439 266.871,97.545 297.933,115.482 					"/>
					<polygon style="fill:#EEF3F5;" points="266.871,133.605 297.933,151.542 297.933,115.482 266.871,97.545 					"/>
					<polygon style="fill:#211A1A;" points="268.708,100.654 268.708,132.835 296.096,148.656 296.096,116.475 					"/>
					<g>
						<g>
							<polygon style="fill:#8CCCCB;" points="272.504,105.921 270.894,104.994 270.894,104.194 272.504,105.124 							"/>
							<polygon style="fill:#8CCCCB;" points="272.504,107.825 270.894,106.897 270.894,106.103 272.504,107.032 							"/>
							<polygon style="fill:#8CCCCB;" points="275.286,107.528 273.679,106.601 273.679,105.806 275.286,106.733 							"/>
							<polygon style="fill:#B5AFA7;" points="277.909,109.044 275.681,107.756 275.681,106.961 277.909,108.249 							"/>
							<polygon style="fill:#EEF3F5;" points="278.784,111.453 273.149,108.198 273.149,107.406 278.784,110.658 							"/>
							<polygon style="fill:#EEF3F5;" points="275.568,111.593 270.894,108.892 270.894,108.099 275.568,110.801 							"/>
							<polygon style="fill:#EEF3F5;" points="284.501,118.657 270.894,110.801 270.894,110.006 284.501,117.862 							"/>
							<polygon style="fill:#EEF3F5;" points="277.077,116.277 270.894,112.707 270.894,111.91 277.077,115.482 							"/>
							<polygon style="fill:#B5AFA7;" points="272.607,115.6 270.894,114.613 270.894,113.818 272.607,114.805 							"/>
							<polygon style="fill:#8CCCCB;" points="276.088,117.611 273.463,116.093 273.463,115.301 276.088,116.819 							"/>
							<polygon style="fill:#8CCCCB;" points="281.787,118.998 277.528,116.539 277.528,115.744 281.787,118.203 							"/>
							<polygon style="fill:#B5AFA7;" points="283.9,120.215 282.371,119.334 282.371,118.536 283.9,119.42 							"/>
							<polygon style="fill:#FF9F3D;" points="286.446,119.778 285.394,119.172 285.394,118.377 286.446,118.986 							"/>
							<polygon style="fill:#B5AFA7;" points="287.849,120.59 286.797,119.981 286.797,119.187 287.849,119.795 							"/>
							<polygon style="fill:#FF9F3D;" points="290.338,122.027 289.28,121.414 289.28,120.624 290.338,121.233 							"/>
							<polygon style="fill:#8CCCCB;" points="293.959,124.118 290.683,122.226 290.683,121.434 293.959,123.323 							"/>
							<polygon style="fill:#8CCCCB;" points="278.87,113.5 276.088,111.89 276.088,111.098 278.87,112.707 							"/>
							<polygon style="fill:#B5AFA7;" points="281.41,114.964 279.839,114.059 279.839,113.264 281.41,114.172 							"/>
							<polygon style="fill:#FF9F3D;" points="285.85,117.531 282.779,115.759 282.779,114.962 285.85,116.736 							"/>
							<polygon style="fill:#8CCCCB;" points="288.014,118.779 286.633,117.98 286.633,117.185 288.014,117.984 							"/>
							<polygon style="fill:#8CCCCB;" points="290.149,120.011 288.767,119.214 288.767,118.419 290.149,119.216 							"/>
							<polygon style="fill:#8CCCCB;" points="285.041,115.065 279.405,111.809 279.405,111.019 285.041,114.27 							"/>
							<polygon style="fill:#B5AFA7;" points="287.197,116.309 285.698,115.445 285.698,114.65 287.197,115.514 							"/>
							<polygon style="fill:#B5AFA7;" points="271.333,116.907 270.985,116.706 270.985,115.911 271.333,116.113 							"/>
						</g>
						<g>
							<polygon style="fill:#B5AFA7;" points="272.418,119.488 270.973,118.657 270.973,117.835 272.418,118.666 							"/>
							<polygon style="fill:#EEF3F5;" points="277.612,122.486 273.426,120.07 273.426,119.25 277.612,121.667 							"/>
							<polygon style="fill:#EEF3F5;" points="276.081,125.546 271.898,123.129 271.898,122.31 276.081,124.722 							"/>
							<polygon style="fill:#8CCCCB;" points="273.426,125.985 271.898,125.102 271.898,124.28 273.426,125.163 							"/>
							<polygon style="fill:#8CCCCB;" points="278.742,129.052 274.835,126.797 274.835,125.973 278.742,128.23 							"/>
							<polygon style="fill:#8CCCCB;" points="282.315,131.115 280.855,130.273 280.855,129.452 282.315,130.298 							"/>
							<polygon style="fill:#B5AFA7;" points="280.043,129.805 279.314,129.38 279.314,128.561 280.043,128.98 							"/>
							<polygon style="fill:#B5AFA7;" points="274.515,126.61 273.787,126.193 273.787,125.371 274.515,125.791 							"/>
							<polygon style="fill:#8CCCCB;" points="273.426,127.952 271.898,127.072 271.898,126.248 273.426,127.13 							"/>
							<polygon style="fill:#8CCCCB;" points="272.869,129.604 271.898,129.044 271.898,128.222 272.869,128.784 							"/>
							<polygon style="fill:#EEF3F5;" points="280.306,133.897 274.41,130.494 274.41,129.67 280.306,133.075 							"/>
							<polygon style="fill:#EEF3F5;" points="276.788,133.929 271.883,131.098 271.883,130.281 276.788,133.11 							"/>
							<polygon style="fill:#8CCCCB;" points="280.507,136.078 277.418,134.292 277.416,133.473 280.507,135.259 							"/>
							<polygon style="fill:#8CCCCB;" points="293.794,143.75 290.011,141.566 290.011,140.747 293.794,142.928 							"/>
							<polygon style="fill:#B5AFA7;" points="282.56,137.263 281.294,136.532 281.294,135.715 282.56,136.444 							"/>
							<polygon style="fill:#FF9F3D;" points="289.025,140.995 284.135,138.173 284.135,137.351 289.025,140.173 							"/>
							<polygon style="fill:#8CCCCB;" points="286.751,137.619 280.855,134.216 280.855,133.394 286.751,136.8 							"/>
							<polygon style="fill:#8CCCCB;" points="278.742,131.022 274.835,128.764 274.835,127.945 278.742,130.202 							"/>
							<polygon style="fill:#8CCCCB;" points="282.315,133.087 280.855,132.248 280.855,131.424 282.315,132.266 							"/>
							<polygon style="fill:#B5AFA7;" points="280.043,131.775 279.314,131.353 279.314,130.533 280.043,130.953 							"/>
							<polygon style="fill:#B5AFA7;" points="274.515,128.583 273.787,128.163 273.787,127.339 274.515,127.763 							"/>
							<polygon style="fill:#B5AFA7;" points="273.988,130.251 273.257,129.827 273.257,129.008 273.988,129.43 							"/>
							<polygon style="fill:#8CCCCB;" points="280.909,128.335 276.724,125.919 276.724,125.094 280.909,127.513 							"/>
							<polygon style="fill:#8CCCCB;" points="284.766,130.558 282.113,129.03 282.113,128.208 284.766,129.739 							"/>
							<polygon style="fill:#8CCCCB;" points="289.41,133.24 285.416,130.934 285.416,130.114 289.41,132.418 							"/>
							<polygon style="fill:#8CCCCB;" points="293.107,135.374 290.74,134.008 290.74,133.183 293.107,134.552 							"/>
							<polygon style="fill:#8CCCCB;" points="283.002,125.597 278.814,123.186 278.814,122.361 283.002,124.778 							"/>
							<polygon style="fill:#B5AFA7;" points="271.333,120.83 270.973,120.624 270.973,119.8 271.333,120.006 							"/>
							<polygon style="fill:#B5AFA7;" points="271.333,132.779 270.973,132.57 270.973,131.751 271.333,131.959 							"/>
						</g>
					</g>
				</g>
				<g>
					<polygon style="fill:#8CCCCB;" points="277.788,111.723 276.915,112.229 245.848,94.292 246.721,93.789 					"/>
					<polygon style="fill:#3E6669;" points="277.788,114.832 276.915,115.337 276.915,112.229 277.788,111.723 					"/>
					<polygon style="fill:#D1D1D1;" points="277.788,135.671 276.915,136.172 276.915,115.337 277.788,114.832 					"/>
					<polygon style="fill:#389998;" points="276.915,112.229 245.848,94.292 245.848,97.401 276.915,115.337 					"/>
					<polygon style="fill:#EEF3F5;" points="245.848,118.239 276.915,136.172 276.915,115.337 245.848,97.401 					"/>
					<polygon style="fill:#211A1A;" points="247.69,100.509 247.69,117.467 275.073,133.291 275.073,116.331 					"/>
					<g>
						<polygon style="fill:#B5AFA7;" points="250.774,104.265 249.329,103.433 249.329,102.609 250.774,103.446 						"/>
						<polygon style="fill:#EEF3F5;" points="255.968,107.265 251.78,104.849 251.78,104.024 255.968,106.444 						"/>
						<polygon style="fill:#EEF3F5;" points="254.439,110.32 250.254,107.909 250.254,107.084 254.439,109.501 						"/>
						<polygon style="fill:#8CCCCB;" points="251.78,110.759 250.254,109.876 250.254,109.054 251.78,109.937 						"/>
						<polygon style="fill:#8CCCCB;" points="257.101,113.828 253.191,111.571 253.191,110.752 257.101,113.009 						"/>
						<polygon style="fill:#8CCCCB;" points="260.676,115.894 259.214,115.05 259.214,114.231 260.676,115.072 						"/>
						<polygon style="fill:#B5AFA7;" points="258.399,114.579 257.673,114.16 257.673,113.335 258.399,113.76 						"/>
						<polygon style="fill:#B5AFA7;" points="252.877,111.39 252.143,110.97 252.143,110.146 252.877,110.57 						"/>
						<polygon style="fill:#8CCCCB;" points="251.78,112.729 250.254,111.846 250.254,111.027 251.78,111.91 						"/>
						<polygon style="fill:#8CCCCB;" points="251.228,114.378 250.254,113.818 250.254,112.997 251.228,113.559 						"/>
						<polygon style="fill:#EEF3F5;" points="258.664,118.674 252.769,115.268 252.769,114.449 258.664,117.855 						"/>
						<polygon style="fill:#EEF3F5;" points="255.144,118.703 250.239,115.874 250.239,115.055 255.144,117.886 						"/>
						<polygon style="fill:#8CCCCB;" points="258.863,120.857 255.772,119.066 255.772,118.247 258.863,120.035 						"/>
						<polygon style="fill:#8CCCCB;" points="272.15,128.527 268.367,126.34 268.367,125.521 272.15,127.707 						"/>
						<polygon style="fill:#B5AFA7;" points="260.917,122.042 259.655,121.309 259.655,120.489 260.917,121.218 						"/>
						<polygon style="fill:#FF9F3D;" points="267.381,125.771 262.492,122.95 262.492,122.126 267.381,124.95 						"/>
						<polygon style="fill:#8CCCCB;" points="265.109,122.393 259.214,118.993 259.214,118.169 265.109,121.574 						"/>
						<polygon style="fill:#8CCCCB;" points="257.101,115.801 253.191,113.544 253.191,112.722 257.101,114.979 						"/>
						<polygon style="fill:#8CCCCB;" points="260.676,117.864 259.214,117.022 259.214,116.201 260.676,117.045 						"/>
						<polygon style="fill:#B5AFA7;" points="258.399,116.549 257.673,116.13 257.673,115.308 258.399,115.73 						"/>
						<polygon style="fill:#B5AFA7;" points="252.877,113.362 252.143,112.938 252.143,112.118 252.877,112.538 						"/>
						<polygon style="fill:#B5AFA7;" points="252.344,115.028 251.618,114.606 251.618,113.784 252.344,114.204 						"/>
						<polygon style="fill:#8CCCCB;" points="259.265,113.112 255.08,110.693 255.08,109.871 259.265,112.287 						"/>
						<polygon style="fill:#8CCCCB;" points="263.122,115.337 260.472,113.806 260.472,112.987 263.122,114.515 						"/>
						<polygon style="fill:#8CCCCB;" points="267.766,118.016 263.772,115.71 263.772,114.891 267.766,117.197 						"/>
						<polygon style="fill:#8CCCCB;" points="271.466,120.151 269.096,118.784 269.096,117.962 271.466,119.331 						"/>
						<polygon style="fill:#8CCCCB;" points="261.358,110.377 257.17,107.96 257.17,107.138 261.358,109.557 						"/>
						<polygon style="fill:#B5AFA7;" points="249.69,105.605 249.329,105.398 249.329,104.577 249.69,104.785 						"/>
						<polygon style="fill:#B5AFA7;" points="249.69,117.558 249.329,117.349 249.329,116.527 249.69,116.736 						"/>
					</g>
				</g>
			</g>
		</g>
	</g>
	<g>
		<g>
			<polygon style="fill:#D8D1C7;" points="331.356,180.048 326.358,182.943 317.889,178.048 322.892,175.158 			"/>
			<polygon style="fill:#A39C95;" points="335.514,193.537 326.358,198.826 326.358,182.943 331.356,180.048 			"/>
			<polygon style="fill:#E0DEDC;" points="326.358,182.943 317.889,178.048 317.889,193.936 326.358,198.826 			"/>
		</g>
		<polygon style="fill:#F4EFE9;" points="328.716,193.362 326.635,194.56 313.839,187.168 315.924,185.968 		"/>
		<polygon style="fill:#403531;" points="328.716,200.19 326.635,201.392 325.207,197.374 326.635,194.56 328.716,193.362 		"/>
		<polygon style="fill:#685750;" points="326.635,194.56 313.839,187.168 313.839,193.998 326.635,201.392 		"/>
		<polygon style="fill:#F4EFE9;" points="328.716,162.786 326.635,163.988 313.839,156.596 315.924,155.396 		"/>
		<polygon style="fill:#D1D1D1;" points="328.716,193.362 326.635,194.56 326.635,163.988 328.716,162.786 		"/>
		<polygon style="fill:#E0DEDC;" points="326.635,163.988 313.839,156.596 313.839,187.168 326.635,194.56 		"/>
		<polygon style="fill:#A39C95;" points="314.565,157.85 314.565,186.751 325.914,193.306 325.914,164.402 		"/>
	</g>
	<g>
		<polygon style="opacity:0.3;" points="252.388,219.125 182.067,178.525 208.404,163.323 278.723,203.924 		"/>
		<g>
			<polygon style="fill:#D1D1D1;" points="252.327,218.831 250.079,214.542 278.439,201.976 278.439,203.757 			"/>
			<polygon style="fill:#F4EFE9;" points="252.327,218.831 182.626,178.581 182.626,176.799 187.908,178.08 247.881,212.749 
				252.327,217.045 			"/>
			<polygon style="fill:#EEF3F5;" points="252.327,217.045 182.626,176.799 208.732,161.726 278.439,201.976 			"/>
		</g>
		<g>
			<polygon style="fill:#F4EFE9;" points="264.648,197.685 261.861,196.078 263.041,195.403 265.823,197.006 			"/>
			<polygon style="fill:#F4EFE9;" points="267.747,199.474 264.965,197.87 266.142,197.19 268.92,198.799 			"/>
			<polygon style="fill:#F4EFE9;" points="270.843,201.264 268.056,199.66 269.241,198.978 272.018,200.58 			"/>
			<polygon style="fill:#DDE65C;" points="264.488,197.121 262.852,196.167 263.191,195.97 264.837,196.917 			"/>
			<polygon style="fill:#DDE65C;" points="267.595,198.907 265.948,197.955 266.299,197.761 267.936,198.704 			"/>
			<polygon style="fill:#DDE65C;" points="270.683,200.693 269.037,199.746 269.385,199.547 271.027,200.497 			"/>
		</g>
		<g>
			<g>
				<g>
					<polygon style="fill:#403531;" points="212.312,166.12 212.312,165.276 206.814,163.46 206.814,164.294 211.132,166.792 					
						"/>
					<polygon style="fill:#836E69;" points="212.312,165.276 207.989,162.781 206.814,163.46 211.132,165.953 					"/>
				</g>
				<g>
					<polygon style="fill:#403531;" points="214.221,168.571 215.396,167.891 215.396,167.052 211.439,166.127 211.439,166.969 
											"/>
					<polygon style="fill:#836E69;" points="214.221,167.737 215.396,167.052 212.614,165.45 211.439,166.127 					"/>
				</g>
				<g>
					<polygon style="fill:#403531;" points="217.32,170.362 218.492,169.685 218.492,168.843 214.537,167.916 214.537,168.76 					
						"/>
					<polygon style="fill:#836E69;" points="217.32,169.523 218.492,168.843 215.708,167.236 214.537,167.916 					"/>
				</g>
				<g>
					<polygon style="fill:#403531;" points="220.409,172.145 221.586,171.471 221.586,170.632 217.631,169.702 217.631,170.541 
											"/>
					<polygon style="fill:#836E69;" points="220.409,171.306 221.586,170.632 218.804,169.027 217.631,169.702 					"/>
				</g>
				<g>
					<polygon style="fill:#403531;" points="223.51,173.936 224.685,173.257 224.685,172.423 220.728,171.495 220.728,172.33 					
						"/>
					<polygon style="fill:#836E69;" points="223.51,173.097 224.685,172.423 221.907,170.816 220.728,171.495 					"/>
				</g>
				<g>
					<polygon style="fill:#403531;" points="226.608,175.722 227.781,175.051 227.781,174.209 223.826,173.281 223.826,174.12 					
						"/>
					<polygon style="fill:#836E69;" points="226.608,174.884 227.781,174.209 225.001,172.602 223.826,173.281 					"/>
				</g>
				<g>
					<polygon style="fill:#403531;" points="229.702,177.516 230.889,176.836 230.889,175.993 226.92,175.072 226.92,175.911 					
						"/>
					<polygon style="fill:#836E69;" points="229.702,176.677 230.889,175.993 228.102,174.39 226.92,175.072 					"/>
				</g>
				<g>
					<polygon style="fill:#403531;" points="232.798,179.302 233.983,178.622 233.983,177.788 230.016,176.856 230.016,177.7 					
						"/>
					<polygon style="fill:#836E69;" points="232.798,178.463 233.983,177.788 231.196,176.182 230.016,176.856 					"/>
				</g>
				<g>
					<polygon style="fill:#403531;" points="235.892,181.088 237.074,180.411 237.074,179.577 233.115,178.642 233.115,179.486 
											"/>
					<polygon style="fill:#836E69;" points="235.892,180.249 237.074,179.577 234.292,177.967 233.115,178.642 					"/>
				</g>
				<g>
					<polygon style="fill:#403531;" points="238.99,182.877 240.173,182.197 240.173,181.358 236.213,180.433 236.213,181.272 					
						"/>
					<polygon style="fill:#836E69;" points="238.99,182.038 240.173,181.358 237.391,179.756 236.213,180.433 					"/>
				</g>
				<g>
					<polygon style="fill:#403531;" points="242.087,184.667 243.267,183.988 243.267,183.149 239.314,182.221 239.314,183.061 
											"/>
					<polygon style="fill:#836E69;" points="242.087,183.828 243.267,183.149 240.49,181.542 239.314,182.221 					"/>
				</g>
				<g>
					<polygon style="fill:#403531;" points="245.185,186.454 246.363,185.776 246.363,184.937 242.408,184.012 242.408,184.847 
											"/>
					<polygon style="fill:#836E69;" points="245.185,185.615 246.363,184.937 243.586,183.328 242.408,184.012 					"/>
				</g>
				<g>
					<polygon style="fill:#403531;" points="248.281,188.242 249.462,187.563 249.462,186.723 245.504,185.794 245.504,186.638 
											"/>
					<polygon style="fill:#836E69;" points="248.281,187.408 249.462,186.723 246.679,185.121 245.504,185.794 					"/>
				</g>
				<g>
					<polygon style="fill:#403531;" points="251.38,190.028 252.56,189.349 252.56,188.51 248.598,187.587 248.598,188.431 					"/>
					<polygon style="fill:#836E69;" points="251.38,189.189 252.56,188.51 249.773,186.907 248.598,187.587 					"/>
				</g>
			</g>
			<g>
				<g>
					<polygon style="fill:#403531;" points="209.003,168.029 209.003,167.185 201.898,166.294 201.898,167.138 206.22,169.63 					
						"/>
					<polygon style="fill:#836E69;" points="209.003,167.185 204.675,164.689 201.898,166.294 206.22,168.791 					"/>
				</g>
				<g>
					<polygon style="fill:#403531;" points="210.629,168.966 209.304,168.203 207.975,168.966 206.522,168.966 206.522,169.81 
						209.304,171.419 212.086,169.81 212.086,168.966 					"/>
					<polygon style="fill:#836E69;" points="209.304,167.359 206.522,168.966 209.304,170.571 212.086,168.966 					"/>
				</g>
				<g>
					<polygon style="fill:#403531;" points="213.723,170.755 212.4,169.989 211.074,170.755 209.621,170.755 209.621,171.589 
						212.4,173.195 215.182,171.589 215.182,170.755 					"/>
					<polygon style="fill:#836E69;" points="212.4,169.15 209.621,170.755 212.4,172.356 215.182,170.755 					"/>
				</g>
				<g>
					<polygon style="fill:#403531;" points="216.829,172.54 215.494,171.777 214.17,172.54 212.712,172.54 212.712,173.379 
						215.494,174.989 218.277,173.379 218.277,172.54 					"/>
					<polygon style="fill:#836E69;" points="215.494,170.938 212.712,172.54 215.494,174.148 218.277,172.54 					"/>
				</g>
				<g>
					<polygon style="fill:#403531;" points="219.923,174.331 218.598,173.564 217.268,174.331 215.816,174.331 215.816,175.173 
						218.598,176.78 221.375,175.173 221.375,174.331 					"/>
					<polygon style="fill:#836E69;" points="218.598,172.729 215.816,174.331 218.598,175.936 221.375,174.331 					"/>
				</g>
				<g>
					<polygon style="fill:#403531;" points="223.014,176.115 221.684,175.352 220.359,176.115 218.909,176.115 218.909,176.959 
						221.684,178.561 224.466,176.959 224.466,176.115 					"/>
					<polygon style="fill:#836E69;" points="221.684,174.51 218.909,176.115 221.684,177.722 224.466,176.115 					"/>
				</g>
				<g>
					<polygon style="fill:#403531;" points="226.117,177.901 224.783,177.143 223.458,177.901 222.005,177.901 222.005,178.74 
						224.783,180.354 227.565,178.74 227.565,177.901 					"/>
					<polygon style="fill:#836E69;" points="224.783,176.304 222.005,177.901 224.783,179.51 227.565,177.901 					"/>
				</g>
				<g>
					<polygon style="fill:#403531;" points="229.216,179.695 227.882,178.929 226.557,179.695 225.104,179.695 225.104,180.534 
						227.882,182.136 230.664,180.534 230.664,179.695 					"/>
					<polygon style="fill:#836E69;" points="227.882,178.085 225.104,179.695 227.882,181.301 230.664,179.695 					"/>
				</g>
				<g>
					<polygon style="fill:#403531;" points="232.303,181.485 230.978,180.718 229.653,181.485 228.198,181.485 228.198,182.324 
						230.978,183.927 233.76,182.324 233.76,181.485 					"/>
					<polygon style="fill:#836E69;" points="230.978,179.881 228.198,181.485 230.978,183.088 233.76,181.485 					"/>
				</g>
				<g>
					<polygon style="fill:#403531;" points="235.406,183.267 234.076,182.504 232.751,183.267 231.299,183.267 231.299,184.111 
						234.076,185.715 236.853,184.111 236.853,183.267 					"/>
					<polygon style="fill:#836E69;" points="234.076,181.665 231.299,183.267 234.076,184.876 236.853,183.267 					"/>
				</g>
				<g>
					<polygon style="fill:#403531;" points="238.505,185.055 237.175,184.29 235.85,185.055 234.393,185.055 234.393,185.895 
						237.175,187.501 239.952,185.895 239.952,185.055 					"/>
					<polygon style="fill:#836E69;" points="237.175,183.451 234.393,185.055 237.175,186.662 239.952,185.055 					"/>
				</g>
				<g>
					<polygon style="fill:#403531;" points="241.596,186.846 240.271,186.078 238.942,186.846 237.494,186.846 237.494,187.685 
						240.271,189.288 243.058,187.685 243.058,186.846 					"/>
					<polygon style="fill:#836E69;" points="240.271,185.244 237.494,186.846 240.271,188.448 243.058,186.846 					"/>
				</g>
				<g>
					<polygon style="fill:#403531;" points="244.695,188.637 243.37,187.869 242.05,188.637 240.588,188.637 240.588,189.471 
						243.37,191.081 246.157,189.471 246.157,188.637 					"/>
					<polygon style="fill:#836E69;" points="243.37,187.03 240.588,188.637 243.37,190.242 246.157,188.637 					"/>
				</g>
				<g>
					<polygon style="fill:#403531;" points="247.793,190.426 246.468,189.655 245.139,190.426 243.686,190.426 243.686,191.265 
						246.468,192.867 249.248,191.265 249.248,190.426 					"/>
					<polygon style="fill:#836E69;" points="246.468,188.821 243.686,190.426 246.468,192.028 249.248,190.426 					"/>
				</g>
				<g>
					<polygon style="fill:#403531;" points="203.043,168.009 201.704,167.241 200.384,168.009 198.932,168.009 198.932,168.843 
						201.704,170.452 204.491,168.843 204.491,168.009 					"/>
					<polygon style="fill:#836E69;" points="201.704,166.402 198.932,168.009 201.704,169.613 204.491,168.009 					"/>
				</g>
				<g>
					<polygon style="fill:#403531;" points="206.135,169.797 204.802,169.027 203.48,169.797 202.025,169.797 202.025,170.632 
						204.802,172.239 207.582,170.632 207.582,169.797 					"/>
					<polygon style="fill:#836E69;" points="204.802,168.188 202.025,169.797 204.802,171.4 207.582,169.797 					"/>
				</g>
				<g>
					<polygon style="fill:#403531;" points="209.223,171.583 207.898,170.816 206.574,171.583 205.126,171.583 205.126,172.423 
						207.898,174.027 210.686,172.423 210.686,171.583 					"/>
					<polygon style="fill:#836E69;" points="207.898,169.972 205.126,171.583 207.898,173.183 210.686,171.583 					"/>
				</g>
				<g>
					<polygon style="fill:#403531;" points="212.332,173.365 210.997,172.602 209.677,173.365 208.22,173.365 208.22,174.209 
						210.997,175.813 213.775,174.209 213.775,173.365 					"/>
					<polygon style="fill:#836E69;" points="210.997,171.763 208.22,173.365 210.997,174.974 213.775,173.365 					"/>
				</g>
				<g>
					<polygon style="fill:#403531;" points="215.423,175.158 214.093,174.39 212.769,175.158 211.316,175.158 211.316,175.993 
						214.093,177.599 216.871,175.993 216.871,175.158 					"/>
					<polygon style="fill:#836E69;" points="214.093,173.549 211.316,175.158 214.093,176.76 216.871,175.158 					"/>
				</g>
				<g>
					<polygon style="fill:#403531;" points="218.522,176.949 217.192,176.182 215.867,176.949 214.415,176.949 214.415,177.788 
						217.192,179.393 219.969,177.788 219.969,176.949 					"/>
					<polygon style="fill:#836E69;" points="217.192,175.337 214.415,176.949 217.192,178.551 219.969,176.949 					"/>
				</g>
				<g>
					<polygon style="fill:#403531;" points="221.62,178.736 220.29,177.967 218.966,178.736 217.513,178.736 217.513,179.572 
						220.29,181.179 223.068,179.572 223.068,178.736 					"/>
					<polygon style="fill:#836E69;" points="220.29,177.128 217.513,178.736 220.29,180.34 223.068,178.736 					"/>
				</g>
				<g>
					<polygon style="fill:#403531;" points="224.712,180.519 223.387,179.756 222.062,180.519 220.605,180.519 220.605,181.358 
						223.387,182.965 226.174,181.358 226.174,180.519 					"/>
					<polygon style="fill:#836E69;" points="223.387,178.914 220.605,180.519 223.387,182.121 226.174,180.519 					"/>
				</g>
				<g>
					<polygon style="fill:#403531;" points="227.815,182.31 226.485,181.542 225.156,182.31 223.703,182.31 223.703,183.149 
						226.485,184.753 229.268,183.149 229.268,182.31 					"/>
					<polygon style="fill:#836E69;" points="226.485,180.703 223.703,182.31 226.485,183.917 229.268,182.31 					"/>
				</g>
				<g>
					<polygon style="fill:#403531;" points="230.904,184.098 229.584,183.333 228.257,184.098 226.807,184.098 226.807,184.937 
						229.584,186.545 232.359,184.937 232.359,184.098 					"/>
					<polygon style="fill:#836E69;" points="229.584,182.494 226.807,184.098 229.584,185.706 232.359,184.098 					"/>
				</g>
				<g>
					<polygon style="fill:#403531;" points="234.001,185.884 232.676,185.121 231.35,185.884 229.898,185.884 229.898,186.723 
						232.676,188.33 235.458,186.723 235.458,185.884 					"/>
					<polygon style="fill:#836E69;" points="232.676,184.28 229.898,185.884 232.676,187.491 235.458,185.884 					"/>
				</g>
				<g>
					<polygon style="fill:#403531;" points="237.099,187.675 235.774,186.907 234.444,187.675 232.997,187.675 232.997,188.51 
						235.774,190.119 238.556,188.51 238.556,187.675 					"/>
					<polygon style="fill:#836E69;" points="235.774,186.073 232.997,187.675 235.774,189.28 238.556,187.675 					"/>
				</g>
				<g>
					<polygon style="fill:#403531;" points="240.198,189.459 238.87,188.699 237.543,189.459 236.095,189.459 236.095,190.303 
						238.87,191.905 241.652,190.303 241.652,189.459 					"/>
					<polygon style="fill:#836E69;" points="238.87,187.855 236.095,189.459 238.87,191.066 241.652,189.459 					"/>
				</g>
				<g>
					<polygon style="fill:#403531;" points="246.285,192.975 246.285,192.131 239.192,191.25 239.192,192.089 243.507,194.579 					
						"/>
					<polygon style="fill:#836E69;" points="246.285,192.131 241.969,189.645 239.192,191.25 243.507,193.74 					"/>
				</g>
				<g>
					<polygon style="fill:#403531;" points="202.933,171.471 202.933,170.632 195.941,169.81 195.941,170.646 200.144,173.073 					
						"/>
					<polygon style="fill:#836E69;" points="202.933,170.632 198.723,168.203 195.941,169.81 200.144,172.234 					"/>
				</g>
				<g>
					<polygon style="fill:#403531;" points="204.574,172.423 203.24,171.655 201.915,172.423 200.462,172.423 200.462,173.257 
						203.24,174.866 206.027,173.257 206.027,172.423 					"/>
					<polygon style="fill:#836E69;" points="203.24,170.816 200.462,172.423 203.24,174.027 206.027,172.423 					"/>
				</g>
				<g>
					<polygon style="fill:#403531;" points="207.668,174.209 206.338,173.441 205.013,174.209 203.556,174.209 203.556,175.046 
						206.338,176.652 209.12,175.046 209.12,174.209 					"/>
					<polygon style="fill:#836E69;" points="206.338,172.597 203.556,174.209 206.338,175.813 209.12,174.209 					"/>
				</g>
				<g>
					<polygon style="fill:#403531;" points="210.762,175.993 209.437,175.229 208.112,175.993 206.655,175.993 206.655,176.836 
						209.437,178.434 212.214,176.836 212.214,175.993 					"/>
					<polygon style="fill:#836E69;" points="209.437,174.385 206.655,175.993 209.437,177.594 212.214,175.993 					"/>
				</g>
				<g>
					<polygon style="fill:#403531;" points="213.858,177.783 212.533,177.016 211.208,177.783 209.751,177.783 209.751,178.617 
						212.533,180.227 215.315,178.617 215.315,177.783 					"/>
					<polygon style="fill:#836E69;" points="212.533,176.182 209.751,177.783 212.533,179.388 215.315,177.783 					"/>
				</g>
				<g>
					<polygon style="fill:#403531;" points="216.957,179.572 215.627,178.801 214.302,179.572 212.85,179.572 212.85,180.411 
						215.627,182.013 218.409,180.411 218.409,179.572 					"/>
					<polygon style="fill:#836E69;" points="215.627,177.967 212.85,179.572 215.627,181.179 218.409,179.572 					"/>
				</g>
				<g>
					<polygon style="fill:#403531;" points="220.05,181.358 218.73,180.595 217.4,181.358 215.948,181.358 215.948,182.197 
						218.73,183.799 221.505,182.197 221.505,181.358 					"/>
					<polygon style="fill:#836E69;" points="218.73,179.756 215.948,181.358 218.73,182.965 221.505,181.358 					"/>
				</g>
				<g>
					<polygon style="fill:#403531;" points="223.146,183.144 221.827,182.381 220.492,183.144 219.044,183.144 219.044,183.983 
						221.827,185.587 224.599,183.983 224.599,183.144 					"/>
					<polygon style="fill:#836E69;" points="221.827,181.537 219.044,183.144 221.827,184.753 224.599,183.144 					"/>
				</g>
				<g>
					<polygon style="fill:#403531;" points="226.245,184.933 224.92,184.167 223.596,184.933 222.133,184.933 222.133,185.776 
						224.92,187.379 227.698,185.776 227.698,184.933 					"/>
					<polygon style="fill:#836E69;" points="224.92,183.328 222.133,184.933 224.92,186.535 227.698,184.933 					"/>
				</g>
				<g>
					<polygon style="fill:#403531;" points="229.339,186.723 228.016,185.96 226.692,186.723 225.242,186.723 225.242,187.563 
						228.016,189.164 230.794,187.563 230.794,186.723 					"/>
					<polygon style="fill:#836E69;" points="228.016,185.117 225.242,186.723 228.016,188.33 230.794,186.723 					"/>
				</g>
				<g>
					<polygon style="fill:#403531;" points="232.44,188.51 231.11,187.742 229.79,188.51 228.338,188.51 228.338,189.349 
						231.11,190.953 233.892,189.349 233.892,188.51 					"/>
					<polygon style="fill:#836E69;" points="231.11,186.907 228.338,188.51 231.11,190.119 233.892,188.51 					"/>
				</g>
				<g>
					<polygon style="fill:#403531;" points="235.544,190.298 234.214,189.533 232.879,190.298 231.431,190.298 231.431,191.137 
						234.214,192.739 236.991,191.137 236.991,190.298 					"/>
					<polygon style="fill:#836E69;" points="234.214,188.694 231.431,190.298 234.214,191.905 236.991,190.298 					"/>
				</g>
				<g>
					<polygon style="fill:#403531;" points="238.635,192.089 237.31,191.316 235.985,192.089 234.525,192.089 234.525,192.928 
						237.31,194.53 240.087,192.928 240.087,192.089 					"/>
					<polygon style="fill:#836E69;" points="237.31,190.482 234.525,192.089 237.31,193.686 240.087,192.089 					"/>
				</g>
				<g>
					<polygon style="fill:#403531;" points="200.764,173.686 200.764,172.852 192.938,171.547 192.938,172.381 197.98,175.293 					
						"/>
					<polygon style="fill:#836E69;" points="200.764,172.852 195.715,169.938 192.938,171.547 197.98,174.454 					"/>
				</g>
				<g>
					<polygon style="fill:#403531;" points="202.406,174.638 201.081,173.87 199.751,174.638 198.294,174.638 198.294,175.475 
						201.081,177.082 203.863,175.475 203.863,174.638 					"/>
					<polygon style="fill:#836E69;" points="201.081,173.031 198.294,174.638 201.081,176.243 203.863,174.638 					"/>
				</g>
				<g>
					<polygon style="fill:#403531;" points="205.499,176.422 204.169,175.656 202.849,176.422 201.392,176.422 201.392,177.261 
						204.169,178.868 206.956,177.261 206.956,176.422 					"/>
					<polygon style="fill:#836E69;" points="204.169,174.812 201.392,176.422 204.169,178.029 206.956,176.422 					"/>
				</g>
				<g>
					<polygon style="fill:#403531;" points="208.598,178.208 207.273,177.445 205.943,178.208 204.491,178.208 204.491,179.047 
						207.273,180.656 210.045,179.047 210.045,178.208 					"/>
					<polygon style="fill:#836E69;" points="207.273,176.606 204.491,178.208 207.273,179.817 210.045,178.208 					"/>
				</g>
				<g>
					<polygon style="fill:#403531;" points="211.689,179.999 210.369,179.231 209.045,179.999 207.587,179.999 207.587,180.84 
						210.369,182.442 213.151,180.84 213.151,179.999 					"/>
					<polygon style="fill:#836E69;" points="210.369,178.397 207.587,179.999 210.369,181.608 213.151,179.999 					"/>
				</g>
				<g>
					<polygon style="fill:#403531;" points="214.788,181.792 213.463,181.022 212.138,181.792 210.686,181.792 210.686,182.626 
						213.463,184.233 216.25,182.626 216.25,181.792 					"/>
					<polygon style="fill:#836E69;" points="213.463,180.183 210.686,181.792 213.463,183.394 216.25,181.792 					"/>
				</g>
				<g>
					<polygon style="fill:#403531;" points="217.889,183.578 216.559,182.81 215.234,183.578 213.787,183.578 213.787,184.412 
						216.559,186.017 219.341,184.412 219.341,183.578 					"/>
					<polygon style="fill:#836E69;" points="216.559,181.966 213.787,183.578 216.559,185.178 219.341,183.578 					"/>
				</g>
				<g>
					<polygon style="fill:#403531;" points="220.982,185.362 219.662,184.601 218.333,185.362 216.871,185.362 216.871,186.206 
						219.662,187.813 222.435,186.206 222.435,185.362 					"/>
					<polygon style="fill:#836E69;" points="219.662,183.758 216.871,185.362 219.662,186.969 222.435,185.362 					"/>
				</g>
				<g>
					<polygon style="fill:#403531;" points="224.086,187.148 222.757,186.385 221.432,187.148 219.969,187.148 219.969,187.992 
						222.757,189.594 225.534,187.992 225.534,187.148 					"/>
					<polygon style="fill:#836E69;" points="222.757,185.546 219.969,187.148 222.757,188.755 225.534,187.148 					"/>
				</g>
				<g>
					<polygon style="fill:#403531;" points="227.182,188.939 225.853,188.176 224.528,188.939 223.075,188.939 223.075,189.778 
						225.853,191.382 228.63,189.778 228.63,188.939 					"/>
					<polygon style="fill:#836E69;" points="225.853,187.337 223.075,188.939 225.853,190.548 228.63,188.939 					"/>
				</g>
				<g>
					<polygon style="fill:#403531;" points="230.281,190.728 228.951,189.967 227.616,190.728 226.174,190.728 226.174,191.571 
						228.951,193.173 231.738,191.571 231.738,190.728 					"/>
					<polygon style="fill:#836E69;" points="228.951,189.123 226.174,190.728 228.951,192.339 231.738,190.728 					"/>
				</g>
				<g>
					<polygon style="fill:#403531;" points="233.374,192.513 232.05,191.756 230.725,192.513 229.268,192.513 229.268,193.357 
						232.05,194.96 234.832,193.357 234.832,192.513 					"/>
					<polygon style="fill:#836E69;" points="232.05,190.914 229.268,192.513 232.05,194.125 234.832,192.513 					"/>
				</g>
				<g>
					<polygon style="fill:#403531;" points="243.191,194.714 243.191,193.875 237.401,194.847 232.359,194.299 232.359,195.139 
						237.401,198.053 					"/>
					<polygon style="fill:#836E69;" points="243.191,193.875 240.404,192.273 237.401,193.998 235.141,192.698 232.359,194.299 
						237.401,197.219 					"/>
				</g>
				<g>
					<polygon style="fill:#403531;" points="196.225,174.51 196.225,173.671 189.959,173.267 189.959,174.101 193.438,176.11 					
						"/>
					<polygon style="fill:#836E69;" points="196.225,173.671 192.737,171.659 189.959,173.267 193.438,175.281 					"/>
				</g>
				<g>
					<polygon style="fill:#403531;" points="197.879,175.465 196.544,174.699 195.219,175.465 193.767,175.465 193.767,176.304 
						196.544,177.906 199.327,176.304 199.327,175.465 					"/>
					<polygon style="fill:#836E69;" points="196.544,173.86 193.767,175.465 196.544,177.072 199.327,175.465 					"/>
				</g>
				<g>
					<polygon style="fill:#403531;" points="200.968,177.251 199.643,176.483 198.313,177.251 196.861,177.251 196.861,178.09 
						199.643,179.695 202.425,178.09 202.425,177.251 					"/>
					<polygon style="fill:#836E69;" points="199.643,175.649 196.861,177.251 199.643,178.853 202.425,177.251 					"/>
				</g>
				<g>
					<polygon style="fill:#403531;" points="204.071,179.037 202.751,178.274 201.417,179.037 199.964,179.037 199.964,179.881 
						202.751,181.485 205.519,179.881 205.519,179.037 					"/>
					<polygon style="fill:#836E69;" points="202.751,177.435 199.964,179.037 202.751,180.646 205.519,179.037 					"/>
				</g>
				<g>
					<polygon style="fill:#403531;" points="207.167,180.826 205.833,180.06 204.513,180.826 203.065,180.826 203.065,181.665 
						205.833,183.267 208.615,181.665 208.615,180.826 					"/>
					<polygon style="fill:#836E69;" points="205.833,179.221 203.065,180.826 205.833,182.428 208.615,180.826 					"/>
				</g>
				<g>
					<polygon style="fill:#403531;" points="210.266,182.616 208.932,181.849 207.607,182.616 206.159,182.616 206.159,183.451 
						208.932,185.062 211.724,183.451 211.724,182.616 					"/>
					<polygon style="fill:#836E69;" points="208.932,181.01 206.159,182.616 208.932,184.219 211.724,182.616 					"/>
				</g>
				<g>
					<polygon style="fill:#403531;" points="213.36,184.403 212.035,183.635 210.705,184.403 209.253,184.403 209.253,185.244 
						212.035,186.846 214.815,185.244 214.815,184.403 					"/>
					<polygon style="fill:#836E69;" points="212.035,182.8 209.253,184.403 212.035,186.007 214.815,184.403 					"/>
				</g>
				<g>
					<polygon style="fill:#403531;" points="216.456,186.191 215.131,185.426 213.806,186.191 212.349,186.191 212.349,187.03 
						215.131,188.632 217.913,187.03 217.913,186.191 					"/>
					<polygon style="fill:#836E69;" points="215.131,184.587 212.349,186.191 215.131,187.793 217.913,186.191 					"/>
				</g>
				<g>
					<polygon style="fill:#403531;" points="219.555,187.982 218.23,187.214 216.9,187.982 215.448,187.982 215.448,188.821 
						218.23,190.426 221.007,188.821 221.007,187.982 					"/>
					<polygon style="fill:#836E69;" points="218.23,186.37 215.448,187.982 218.23,189.587 221.007,187.982 					"/>
				</g>
				<g>
					<polygon style="fill:#403531;" points="222.661,189.773 221.336,189.01 220.006,189.773 218.549,189.773 218.549,190.612 
						221.336,192.221 224.118,190.612 224.118,189.773 					"/>
					<polygon style="fill:#836E69;" points="221.336,188.166 218.549,189.773 221.336,191.378 224.118,189.773 					"/>
				</g>
				<g>
					<polygon style="fill:#403531;" points="225.759,191.562 224.43,190.791 223.105,191.562 221.652,191.562 221.652,192.401 
						224.43,194.003 227.212,192.401 227.212,191.562 					"/>
					<polygon style="fill:#836E69;" points="224.43,189.952 221.652,191.562 224.43,193.163 227.212,191.562 					"/>
				</g>
				<g>
					<polygon style="fill:#403531;" points="228.858,193.348 227.523,192.585 226.198,193.348 224.746,193.348 224.746,194.186 
						227.523,195.796 230.313,194.186 230.313,193.348 					"/>
					<polygon style="fill:#836E69;" points="227.523,191.745 224.746,193.348 227.523,194.955 230.313,193.348 					"/>
				</g>
				<g>
					<polygon style="fill:#403531;" points="237.202,198.166 237.202,197.327 227.835,195.134 227.835,195.97 234.415,199.771 					
						"/>
					<polygon style="fill:#836E69;" points="237.202,197.327 230.609,193.527 227.835,195.134 234.415,198.932 					"/>
				</g>
				<g>
					<polygon style="fill:#403531;" points="186.969,174.989 186.969,175.828 191.294,178.32 194.069,176.714 194.069,175.874 					
						"/>
					<polygon style="fill:#836E69;" points="189.746,173.384 186.969,174.989 191.294,177.481 194.069,175.874 					"/>
				</g>
				<g>
					<polygon style="fill:#403531;" points="191.608,177.666 191.608,178.5 195.111,180.534 197.889,178.919 197.889,178.085 					
						"/>
					<polygon style="fill:#836E69;" points="194.391,176.058 191.608,177.666 195.111,179.69 197.889,178.085 					"/>
				</g>
				<g>
					<polygon style="fill:#403531;" points="195.428,179.874 195.428,180.708 199.766,183.21 202.548,181.608 202.548,180.769 					
						"/>
					<polygon style="fill:#836E69;" points="198.205,178.264 195.428,179.874 199.766,182.381 202.548,180.769 					"/>
				</g>
				<g>
					<polygon style="fill:#403531;" points="200.082,182.55 200.082,183.394 218.348,193.941 221.13,192.339 221.13,191.495 					
						"/>
					<polygon style="fill:#836E69;" points="202.869,180.948 200.082,182.55 218.348,193.098 221.13,191.495 					"/>
				</g>
				<g>
					<polygon style="fill:#403531;" points="218.664,193.286 218.664,194.125 222.71,196.464 225.489,194.861 225.489,194.013 					
						"/>
					<polygon style="fill:#836E69;" points="221.444,191.679 218.664,193.286 222.71,195.62 225.489,194.013 					"/>
				</g>
				<g>
					<polygon style="fill:#403531;" points="223.048,195.813 223.048,196.652 226.603,198.704 229.38,197.101 229.38,196.262 					
						"/>
					<polygon style="fill:#836E69;" points="225.826,194.211 223.048,195.813 226.603,197.87 229.38,196.262 					"/>
				</g>
				<g>
					<polygon style="fill:#403531;" points="226.895,198.043 226.895,198.877 231.431,201.5 234.219,199.896 234.219,199.057 					
						"/>
					<polygon style="fill:#836E69;" points="229.672,196.436 226.895,198.043 231.431,200.661 234.219,199.057 					"/>
				</g>
			</g>
			<g>
				<g>
					<polygon style="fill:#403531;" points="251.233,192.41 249.906,191.645 248.583,192.41 247.124,192.41 247.124,193.249 
						249.906,194.856 252.69,193.249 252.69,192.41 					"/>
					<polygon style="fill:#836E69;" points="249.906,190.801 247.124,192.41 249.906,194.013 252.69,192.41 					"/>
				</g>
				<g>
					<polygon style="fill:#403531;" points="248.264,194.121 246.944,193.357 245.615,194.121 244.162,194.121 244.162,194.96 
						246.944,196.569 249.724,194.96 249.724,194.121 					"/>
					<polygon style="fill:#836E69;" points="246.944,192.513 244.162,194.121 246.944,195.73 249.724,194.121 					"/>
				</g>
				<g>
					<polygon style="fill:#403531;" points="245.222,195.889 243.887,195.122 242.563,195.889 241.11,195.889 241.11,196.723 
						243.887,198.328 246.665,196.723 246.665,195.889 					"/>
					<polygon style="fill:#836E69;" points="243.887,194.282 241.11,195.889 243.887,197.492 246.665,195.889 					"/>
				</g>
				<g>
					<polygon style="fill:#403531;" points="254.331,194.197 253.002,193.429 251.677,194.197 250.225,194.197 250.225,195.036 
						253.002,196.64 255.784,195.036 255.784,194.197 					"/>
					<polygon style="fill:#836E69;" points="253.002,192.595 250.225,194.197 253.002,195.798 255.784,194.197 					"/>
				</g>
				<g>
					<polygon style="fill:#403531;" points="251.37,195.904 250.036,195.139 248.716,195.904 247.258,195.904 247.258,196.748 
						250.036,198.355 252.822,196.748 252.822,195.904 					"/>
					<polygon style="fill:#836E69;" points="250.036,194.299 247.258,195.904 250.036,197.516 252.822,195.904 					"/>
				</g>
				<g>
					<polygon style="fill:#403531;" points="248.311,197.671 246.986,196.908 245.661,197.671 244.209,197.671 244.209,198.515 
						246.986,200.119 249.768,198.515 249.768,197.671 					"/>
					<polygon style="fill:#836E69;" points="246.986,196.069 244.209,197.671 246.986,199.28 249.768,197.671 					"/>
				</g>
				<g>
					<polygon style="fill:#403531;" points="257.43,195.983 256.105,195.219 254.775,195.983 253.318,195.983 253.318,196.826 
						256.105,198.426 258.883,196.826 258.883,195.983 					"/>
					<polygon style="fill:#836E69;" points="256.105,194.38 253.318,195.983 256.105,197.592 258.883,195.983 					"/>
				</g>
				<g>
					<polygon style="fill:#403531;" points="254.459,197.695 253.139,196.937 251.804,197.695 250.352,197.695 250.352,198.534 
						253.139,200.141 255.921,198.534 255.921,197.695 					"/>
					<polygon style="fill:#836E69;" points="253.139,196.093 250.352,197.695 253.139,199.297 255.921,197.695 					"/>
				</g>
				<g>
					<polygon style="fill:#403531;" points="251.412,199.464 250.079,198.693 248.755,199.464 247.307,199.464 247.307,200.293 
						250.079,201.91 252.864,200.293 252.864,199.464 					"/>
					<polygon style="fill:#836E69;" points="250.079,197.854 247.307,199.464 250.079,201.066 252.864,199.464 					"/>
				</g>
			</g>
			<g>
				<g>
					<polygon style="fill:#403531;" points="236.25,201.066 234.915,200.293 233.59,201.066 232.138,201.066 232.138,201.91 
						234.915,203.51 237.697,201.91 237.697,201.066 					"/>
					<polygon style="fill:#836E69;" points="234.915,199.459 232.138,201.066 234.915,202.67 237.697,201.066 					"/>
				</g>
				<g>
					<polygon style="fill:#403531;" points="242.322,201.132 240.997,200.364 239.677,201.132 238.225,201.132 238.225,201.967 
						240.997,203.576 243.779,201.967 243.779,201.132 					"/>
					<polygon style="fill:#836E69;" points="240.997,199.53 238.225,201.132 240.997,202.732 243.779,201.132 					"/>
				</g>
				<g>
					<polygon style="fill:#403531;" points="239.344,202.852 238.014,202.084 236.689,202.852 235.236,202.852 235.236,203.693 
						238.014,205.296 240.791,203.693 240.791,202.852 					"/>
					<polygon style="fill:#836E69;" points="238.014,201.245 235.236,202.852 238.014,204.457 240.791,202.852 					"/>
				</g>
				<g>
					<polygon style="fill:#403531;" points="242.435,204.641 241.11,203.873 239.78,204.641 238.333,204.641 238.333,205.48 
						241.11,207.087 243.887,205.48 243.887,204.641 					"/>
					<polygon style="fill:#836E69;" points="241.11,203.036 238.333,204.641 241.11,206.243 243.887,204.641 					"/>
				</g>
			</g>
			<g>
				<g>
					<polygon style="fill:#403531;" points="261.061,198.083 259.734,197.317 258.407,198.083 256.949,198.083 256.949,198.922 
						259.734,200.524 262.511,198.922 262.511,198.083 					"/>
					<polygon style="fill:#836E69;" points="259.734,196.473 256.949,198.083 259.734,199.685 262.511,198.083 					"/>
				</g>
				<g>
					<polygon style="fill:#403531;" points="258.095,199.797 256.77,199.025 255.44,199.797 253.993,199.797 253.993,200.632 
						256.77,202.241 259.543,200.632 259.543,199.797 					"/>
					<polygon style="fill:#836E69;" points="256.77,198.196 253.993,199.797 256.77,201.405 259.543,199.797 					"/>
				</g>
				<g>
					<polygon style="fill:#403531;" points="255.038,201.557 253.713,200.794 252.383,201.557 250.941,201.557 250.941,202.396 
						253.713,203.998 256.49,202.396 256.49,201.557 					"/>
					<polygon style="fill:#836E69;" points="253.713,199.955 250.941,201.557 253.713,203.159 256.49,201.557 					"/>
				</g>
				<g>
					<polygon style="fill:#403531;" points="251.988,203.321 250.659,202.555 249.334,203.321 247.881,203.321 247.881,204.16 
						250.659,205.762 253.441,204.16 253.441,203.321 					"/>
					<polygon style="fill:#836E69;" points="250.659,201.716 247.881,203.321 250.659,204.932 253.441,203.321 					"/>
				</g>
				<g>
					<polygon style="fill:#403531;" points="248.995,205.046 247.671,204.282 246.336,205.046 244.888,205.046 244.888,205.894 
						247.671,207.494 250.448,205.894 250.448,205.046 					"/>
					<polygon style="fill:#836E69;" points="247.671,203.443 244.888,205.046 247.671,206.652 250.448,205.046 					"/>
				</g>
				<g>
					<polygon style="fill:#403531;" points="264.152,199.864 262.823,199.106 261.498,199.864 260.041,199.864 260.041,200.708 
						262.823,202.31 265.605,200.708 265.605,199.864 					"/>
					<polygon style="fill:#836E69;" points="262.823,198.262 260.041,199.864 262.823,201.471 265.605,199.864 					"/>
				</g>
				<g>
					<polygon style="fill:#403531;" points="261.186,201.584 259.866,200.816 258.532,201.584 257.082,201.584 257.082,202.415 
						259.866,204.023 262.643,202.415 262.643,201.584 					"/>
					<polygon style="fill:#836E69;" points="259.866,199.972 257.082,201.584 259.866,203.188 262.643,201.584 					"/>
				</g>
				<g>
					<polygon style="fill:#403531;" points="258.137,203.348 256.807,202.58 255.482,203.348 254.025,203.348 254.025,204.187 
						256.807,205.786 259.594,204.187 259.594,203.348 					"/>
					<polygon style="fill:#836E69;" points="256.807,201.736 254.025,203.348 256.807,204.952 259.594,203.348 					"/>
				</g>
				<g>
					<polygon style="fill:#403531;" points="255.087,205.112 253.753,204.344 252.423,205.112 250.98,205.112 250.98,205.946 
						253.753,207.55 256.535,205.946 256.535,205.112 					"/>
					<polygon style="fill:#836E69;" points="253.753,203.505 250.98,205.112 253.753,206.714 256.535,205.112 					"/>
				</g>
				<g>
					<polygon style="fill:#403531;" points="252.091,206.831 250.767,206.068 249.427,206.831 247.985,206.831 247.985,207.673 
						250.767,209.275 253.539,207.673 253.539,206.831 					"/>
					<polygon style="fill:#836E69;" points="250.767,205.229 247.985,206.831 250.767,208.441 253.539,206.831 					"/>
				</g>
				<g>
					<polygon style="fill:#403531;" points="248.353,208.058 244.736,205.971 243.031,206.954 241.954,206.733 241.954,207.572 
						247.845,210.968 250.617,209.361 250.617,208.52 					"/>
					<polygon style="fill:#836E69;" points="244.736,205.126 241.954,206.733 247.845,210.124 250.617,208.52 					"/>
				</g>
				<g>
					<polygon style="fill:#403531;" points="267.251,201.655 265.926,200.887 264.596,201.655 263.149,201.655 263.149,202.494 
						265.926,204.098 268.703,202.494 268.703,201.655 					"/>
					<polygon style="fill:#836E69;" points="265.926,200.048 263.149,201.655 265.926,203.259 268.703,201.655 					"/>
				</g>
				<g>
					<polygon style="fill:#403531;" points="264.28,203.377 262.965,202.604 261.635,203.377 260.178,203.377 260.178,204.206 
						262.965,205.813 265.742,204.206 265.742,203.377 					"/>
					<polygon style="fill:#836E69;" points="262.965,201.765 260.178,203.377 262.965,204.979 265.742,203.377 					"/>
				</g>
				<g>
					<polygon style="fill:#403531;" points="261.24,205.131 259.91,204.366 258.581,205.131 257.123,205.131 257.123,205.971 
						259.91,207.577 262.69,205.971 262.69,205.131 					"/>
					<polygon style="fill:#836E69;" points="259.91,203.527 257.123,205.131 259.91,206.733 262.69,205.131 					"/>
				</g>
				<g>
					<polygon style="fill:#403531;" points="258.174,206.893 256.849,206.13 255.524,206.893 254.072,206.893 254.072,207.737 
						256.849,209.342 259.631,207.737 259.631,206.893 					"/>
					<polygon style="fill:#836E69;" points="256.849,205.291 254.072,206.893 256.849,208.502 259.631,206.893 					"/>
				</g>
				<g>
					<polygon style="fill:#403531;" points="255.19,208.62 253.865,207.857 252.531,208.62 251.073,208.62 251.073,209.464 
						253.865,211.066 256.638,209.464 256.638,208.62 					"/>
					<polygon style="fill:#836E69;" points="253.865,207.02 251.073,208.62 253.865,210.222 256.638,208.62 					"/>
				</g>
				<g>
					<polygon style="fill:#403531;" points="252.261,210.308 250.941,209.545 249.606,210.308 248.156,210.308 248.156,211.152 
						250.941,212.749 253.713,211.152 253.713,210.308 					"/>
					<polygon style="fill:#836E69;" points="250.941,208.708 248.156,210.308 250.941,211.92 253.713,210.308 					"/>
				</g>
				<polygon style="fill:#403531;" points="258.649,210.629 256.962,209.648 253.473,211.652 251.248,212.099 251.248,212.933 
					254.039,214.542 259.734,211.25 259.734,210.411 				"/>
				<g>
					<polygon style="fill:#403531;" points="270.345,203.443 269.02,202.673 267.693,203.443 266.238,203.443 266.238,204.287 
						269.02,205.894 271.8,204.287 271.8,203.443 					"/>
					<polygon style="fill:#836E69;" points="269.02,201.844 266.238,203.443 269.02,205.051 271.8,203.443 					"/>
				</g>
				<g>
					<polygon style="fill:#403531;" points="267.389,205.154 266.054,204.385 264.729,205.154 263.272,205.154 263.272,205.997 
						266.054,207.597 268.841,205.997 268.841,205.154 					"/>
					<polygon style="fill:#836E69;" points="266.054,203.546 263.272,205.154 266.054,206.768 268.841,205.154 					"/>
				</g>
				<g>
					<polygon style="fill:#403531;" points="264.322,206.917 262.997,206.16 261.672,206.917 260.22,206.917 260.22,207.761 
						262.997,209.361 265.779,207.761 265.779,206.917 					"/>
					<polygon style="fill:#836E69;" points="262.997,205.315 260.22,206.917 262.997,208.52 265.779,206.917 					"/>
				</g>
				<g>
					<polygon style="fill:#403531;" points="261.277,208.681 259.947,207.916 258.622,208.681 257.17,208.681 257.17,209.52 
						259.947,211.127 262.725,209.52 262.725,208.681 					"/>
					<polygon style="fill:#836E69;" points="259.947,207.077 257.17,208.681 259.947,210.284 262.725,208.681 					"/>
				</g>
				<polygon style="fill:#836E69;" points="251.248,212.099 254.039,213.703 259.734,210.411 256.962,208.804 				"/>
			</g>
		</g>
	</g>
	<g>
		<g>
			<polygon style="opacity:0.3;" points="192.921,136.056 192.921,131.765 187.663,128.73 180.246,128.73 174.979,131.765 
				174.979,136.056 180.246,139.088 187.663,139.088 			"/>
			<polygon style="fill:#EEF3F5;" points="192.656,118.97 192.656,114.807 187.55,111.858 180.34,111.858 175.244,114.807 
				175.244,118.97 180.34,121.912 187.55,121.912 			"/>
			<polygon style="fill:#F4EFE9;" points="187.013,112.599 191.368,115.116 191.368,118.669 190.727,119.034 187.013,116.895 
				185.512,114.476 			"/>
			<polygon style="fill:#D8D1C7;" points="187.013,116.895 180.855,116.895 179.996,115.004 180.855,112.599 187.013,112.599 			"/>
			<polygon style="fill:#A39C95;" points="180.855,116.895 177.143,119.034 176.503,118.669 176.503,115.116 180.855,112.599 			"/>
			<polygon style="fill:#944E39;" points="190.727,119.034 188.313,120.43 186.13,121.044 181.52,120.946 179.557,120.43 
				177.143,119.034 180.855,116.895 187.013,116.895 			"/>
			<path style="fill:#EFC58B;" d="M185.752,118.578h-3.629l-2.566,1.479v0.373l1.298,0.756h6.158l1.3-0.756v-0.373L185.752,118.578z
				 M183.811,119.346l0.103-0.066h0.159l0.105,0.066v0.091l-0.105,0.066h-0.159l-0.103-0.066V119.346z M182.911,119.078l0.174-0.1
				h0.245l0.184,0.1v0.145l-0.184,0.1h-0.245l-0.174-0.1V119.078z M181.019,119.719l0.103-0.066h0.162l0.108,0.066v0.091
				l-0.108,0.066h-0.162l-0.103-0.066V119.719z M181.689,120.266l-0.169,0.103h-0.26l-0.169-0.103v-0.147l0.169-0.098h0.26
				l0.169,0.098V120.266z M182.324,120.168l-0.128,0.074h-0.191l-0.128-0.074v-0.111l0.128-0.073h0.191l0.128,0.073V120.168z
				 M182.023,119.817l-0.339-0.197v-0.279l0.339-0.191h0.471l0.341,0.191v0.279l-0.341,0.197H182.023z M183.092,120.413
				l-0.113,0.066h-0.155l-0.108-0.066v-0.09l0.108-0.061h0.155l0.113,0.061V120.413z M183.311,120.107l-0.174-0.095v-0.145
				l0.174-0.107h0.245l0.179,0.107v0.145l-0.179,0.095H183.311z M184.673,120.602l-0.272,0.16h-0.388l-0.277-0.16v-0.228
				l0.277-0.159h0.388l0.272,0.159V120.602z M184.513,119.709v-0.272l0.334-0.199h0.474l0.348,0.199v0.272l-0.348,0.194h-0.474
				L184.513,119.709z M185.87,120.536l-0.226,0.13h-0.324l-0.233-0.13v-0.184l0.233-0.137h0.324l0.226,0.137V120.536z
				 M185.997,119.135l0.111-0.066h0.155l0.113,0.066v0.088l-0.113,0.056h-0.155l-0.111-0.056V119.135z M186.645,119.724
				l-0.184,0.103h-0.245l-0.174-0.103v-0.132l0.174-0.108h0.245l0.184,0.108V119.724z"/>
			<rect x="180.34" y="121.912" style="fill:#D8D1C7;" width="7.21" height="16.715"/>
			<polygon style="fill:#F4EFE9;" points="180.34,138.627 175.244,135.688 175.244,118.97 180.34,121.912 			"/>
			<polygon style="fill:#A39C95;" points="187.55,138.627 192.656,135.688 192.656,118.97 187.55,121.912 			"/>
			<rect x="180.34" y="133.213" style="fill:#29617D;" width="7.21" height="1.906"/>
			<polygon style="fill:#4290B8;" points="180.34,135.119 175.244,132.173 175.244,130.266 180.34,133.213 			"/>
			<polygon style="fill:#17435C;" points="187.55,135.119 192.656,132.173 192.656,130.266 187.55,133.213 			"/>
		</g>
		<g>
			<polygon style="fill:#EEF3F5;" points="176.451,123.534 174.474,122.383 176.709,121.105 178.691,122.251 177.153,123.534 			"/>
			<polygon style="fill:#F4EFE9;" points="172.881,129.706 170.906,128.563 174.474,122.383 176.451,123.534 174.893,127.155 			"/>
			<polygon style="fill:#D8D1C7;" points="172.881,135.538 170.906,134.393 170.906,128.563 172.881,129.706 173.384,132.818 			"/>
			<polygon style="fill:#EEF3F5;" points="176.451,136.103 174.474,134.962 176.709,133.681 178.691,134.832 177.153,136.103 			"/>
			<polygon style="fill:#A39C95;" points="178.691,134.832 176.988,135.794 174.177,134.169 174.177,129.579 176.988,124.712 
				178.691,123.74 178.691,122.251 176.451,123.534 172.881,129.706 172.881,135.538 176.451,137.599 178.691,136.321 			"/>
		</g>
	</g>
	<g>
		<polygon style="opacity:0.3;" points="292.345,219.435 283.9,214.559 299.915,205.31 308.36,210.185 		"/>
		<polygon style="fill:#685750;" points="297.276,205.588 299.403,207.209 304.287,205.747 302.366,204.415 		"/>
		<polygon style="fill:#F7F2E8;" points="304.81,205.418 299.915,202.6 294.488,203.693 298.034,205.747 301.589,205.026 
			303.966,206.4 		"/>
		<g>
			<polygon style="fill:#685750;" points="295.433,203.377 295.333,203.74 298.35,205.485 299.445,204.677 			"/>
			<polygon style="fill:#836E69;" points="295.433,203.377 298.446,205.116 300.038,204.979 302.82,204.238 299.807,202.494 			"/>
			<polygon style="fill:#403531;" points="298.446,205.116 298.35,205.485 302.722,204.599 302.82,204.238 			"/>
		</g>
		<g>
			<polygon style="fill:#991F16;" points="299.241,207.29 300.242,205.555 301.67,204.729 302.678,205.305 302.678,206.954 
				301.67,208.691 300.242,209.515 299.241,208.936 			"/>
			<polygon style="fill:#FA5C52;" points="300.242,205.555 301.67,204.729 300.821,204.238 299.403,205.065 300.053,205.573 			"/>
			<polygon style="fill:#C84030;" points="299.241,207.29 300.242,205.555 299.403,205.065 298.392,206.805 299.057,207.371 			"/>
			<polygon style="fill:#BF261B;" points="299.241,208.936 299.241,207.29 298.392,206.805 298.392,208.446 			"/>
		</g>
		<polygon style="fill:#F7F2E8;" points="304.81,205.418 299.388,206.522 302.933,208.573 308.36,207.474 		"/>
		<polygon style="fill:#D1D1D1;" points="308.36,207.474 302.933,208.573 294.106,213.664 292.345,216.716 292.345,218.927 
			294.106,218.416 308.36,210.185 		"/>
		<g>
			<polygon style="fill:#685750;" points="300.274,206.171 300.18,206.535 303.194,208.276 304.287,207.474 			"/>
			<polygon style="fill:#836E69;" points="300.274,206.171 303.286,207.916 304.881,207.781 307.658,207.03 304.646,205.296 			"/>
			<polygon style="fill:#403531;" points="303.286,207.916 303.194,208.276 307.572,207.393 307.658,207.03 			"/>
		</g>
		
			<rect x="287.241" y="207.879" transform="matrix(0.4997 -0.8662 0.8662 0.4997 -39.7057 356.7576)" style="fill:#F7F2E8;" width="3.526" height="9.749"/>
		<polygon style="fill:#EEF3F5;" points="294.106,213.664 285.664,208.789 294.488,203.693 302.933,208.573 		"/>
		<polygon style="fill:#E6E1DD;" points="292.345,218.927 283.9,214.052 283.9,211.844 292.345,216.716 		"/>
		<polygon style="fill:#D8D1C7;" points="293.608,211.076 293.608,210.666 290.911,209.115 290.208,209.115 289.707,209.403 
			289.707,209.807 292.401,211.363 293.112,211.363 		"/>
	</g>
	<g>
		<polygon style="fill:#F0C6B4;" points="174.932,192.344 186.38,188.171 197.05,189.501 206.333,188.171 206.333,186.017 
			202.933,185.021 198.124,185.021 200.779,180.048 205.588,178.058 211.974,179.717 213.382,178.058 206.998,173.083 
			197.739,172.167 182.732,179.881 167.779,183.446 		"/>
		<polygon style="fill:#362C29;" points="119.682,194.165 114.321,183.613 115.094,171.088 120.296,166.336 132.341,165.563 
			138.561,170.094 		"/>
		<polygon style="fill:#F0C6B4;" points="146.544,157.374 141.848,167.025 137.926,171.056 141.24,178.684 160.56,182.83 
			165.286,176.694 166.944,168.402 170.094,164.505 169.015,157.374 155.833,152.484 		"/>
		<polygon style="fill:#574943;" points="180.722,191.736 171.843,186.314 165.286,176.694 154.007,178.519 142.018,171.716 
			141.848,167.025 136.429,168.735 124.486,171.554 117.687,185.318 120.177,205.055 131.62,233.412 131.951,256.461 
			149.206,270.224 179.879,274.04 190.87,261.795 188.006,247.344 183.986,237.224 184.687,223.792 		"/>
		<polygon style="fill:#F0C6B4;" points="179.52,131.78 181.91,143.389 180.264,145.958 180.713,151.348 173.578,166.576 
			167.66,164.95 166.171,160.386 161.773,157.565 169.572,129.456 		"/>
		<polygon style="fill:#853E2A;" points="156.883,122.521 163.296,118.926 162.3,121.468 173.026,121.912 172.361,123.019 
			179.439,127.55 182.589,134.02 179.439,132.859 179.548,141.701 175.46,149.55 175.126,153.973 173.801,153.973 173.357,148.89 
			170.703,148.777 167.052,153.973 166.171,160.386 161.083,163.814 152.018,162.376 145.052,157.513 142.955,150.325 
			143.507,135.953 148.924,126.334 146.986,125.34 153.011,123.902 155.337,120.808 		"/>
		<polygon style="fill:#F0C6B4;" points="198.374,212.882 204.513,219.435 214.434,197.823 215.457,190.661 220.352,189.164 
			226.235,183.941 233.12,185.435 235.023,199.199 225.985,205.997 224.496,206.583 220.681,227.56 217.531,236.348 
			208.328,243.314 199.704,242.896 182.732,229.464 185.607,216.201 		"/>
		<polygon style="fill:#C7A495;" points="204.513,219.435 211.176,232.283 211.618,229.521 		"/>
		<polygon style="fill:#362C29;" points="171.48,191.046 183.387,191.934 199.143,211.5 196.819,224.768 182.835,230.958 
			166.917,212.609 166.029,198.784 		"/>
	</g>
	<g>
		<g>
			<g>
				<polygon style="fill:#211A1A;" points="107.719,271.738 102.695,268.829 96.743,246.199 103.59,248.071 				"/>
				<polygon style="fill:#574943;" points="101.774,249.106 103.59,248.071 98.541,245.151 96.743,246.199 				"/>
				<polygon style="fill:#0A0808;" points="107.719,271.738 109.535,270.688 103.59,248.071 101.774,249.106 				"/>
			</g>
			<g>
				<polygon style="fill:#362C29;" points="101.774,249.106 96.743,246.199 96.743,189.705 103.59,191.589 				"/>
				<polygon style="fill:#574943;" points="101.774,192.641 103.59,191.589 98.541,188.677 96.743,189.705 				"/>
				<polygon style="fill:#0A0808;" points="101.774,249.106 102.874,249.683 103.59,248.071 103.59,191.589 101.774,192.641 				"/>
			</g>
		</g>
		<g>
			<g>
				<polygon style="fill:#389998;" points="161.48,228.498 170.671,238.611 180.246,229.734 177.813,225.524 				"/>
				<polygon style="fill:#8CCCCB;" points="105.6,191.113 164.748,233.065 177.813,225.524 111.912,187.469 				"/>
				<polygon style="fill:#3E6669;" points="165.2,238.404 173.932,267.018 180.246,263.379 180.246,229.734 				"/>
				<polygon style="fill:#574943;" points="103.166,226.164 105.6,230.364 171.505,268.424 173.932,267.018 173.932,233.372 
					171.505,229.167 105.6,191.113 103.166,192.513 				"/>
			</g>
			<g>
				<polygon style="fill:#211A1A;" points="157.707,230.686 166.888,240.789 173.932,233.372 171.505,229.167 				"/>
				<polygon style="fill:#574943;" points="101.812,193.296 160.98,235.254 171.505,229.167 105.6,191.113 				"/>
				<polygon style="fill:#0A0808;" points="161.439,240.588 170.161,269.201 173.932,267.018 173.932,233.372 				"/>
				<polygon style="fill:#362C29;" points="99.395,228.338 101.812,232.538 167.732,270.598 170.161,269.201 170.161,235.556 
					167.732,231.346 101.812,193.296 99.395,194.692 				"/>
			</g>
		</g>
		<g>
			<g>
				<polygon style="fill:#211A1A;" points="183.178,315.301 178.156,312.391 172.217,289.768 179.066,291.645 				"/>
				<polygon style="fill:#574943;" points="177.251,292.688 179.066,291.645 173.998,288.726 172.217,289.768 				"/>
				<polygon style="fill:#0A0808;" points="183.178,315.301 184.999,314.253 179.066,291.645 177.251,292.688 				"/>
			</g>
			<g>
				<polygon style="fill:#362C29;" points="177.251,292.688 172.217,289.768 172.217,233.279 179.066,235.161 				"/>
				<polygon style="fill:#574943;" points="177.251,236.201 179.066,235.161 173.998,232.241 172.217,233.279 				"/>
				<polygon style="fill:#0A0808;" points="177.251,292.688 178.34,293.247 179.066,291.645 179.066,235.161 177.251,236.201 				
					"/>
			</g>
		</g>
	</g>
</g>
</svg>
